<?xml version="1.0" encoding="UTF-8" standalone="no" ?>
<!DOCTYPE svg PUBLIC "-//W3C//DTD SVG 1.1//EN" "http://www.w3.org/Graphics/SVG/1.1/DTD/svg11.dtd">
<svg xmlns="http://www.w3.org/2000/svg" xmlns:xlink="http://www.w3.org/1999/xlink" version="1.1" width="500" height="500" viewBox="0 0 500 500" xml:space="preserve">
<!-- Created with SVG Stack Editor - https://svgstack.com -->
<defs>
</defs>
<rect x="0" y="0" width="100%" height="100%" fill="transparent"></rect>
<g transform="matrix(6.67 0 0 6.67 250 250)"  >
<g style=""   >
		<g transform="matrix(1 0 0 1 5.36 1.2)" id="path_0"  >
<path style="stroke: none; stroke-width: 1; stroke-dasharray: none; stroke-linecap: butt; stroke-dashoffset: 0; stroke-linejoin: miter; stroke-miterlimit: 4; fill: rgb(0,0,0); fill-rule: evenodd; opacity: 1;"  transform=" translate(-42.36, -38.21)" d="M 25.8167 44.8257 C 25.8568 44.6407 25.8907 44.4588 25.9339 44.2984 L 26.122 44.7517 C 26.4766 45.6243 26.8281 46.4907 27.6821 46.9809 C 27.6451 47.7764 26.6523 48.0971 25.9801 47.9984 C 25.8321 47.6438 25.6256 47.2893 25.1939 47.4866 C 24.753 47.6623 24.2689 47.4558 24.3737 46.91 C 25.4005 46.8699 25.6286 45.7476 25.8167 44.8257 Z M 56.6871 28.3977 C 55.7066 28.3977 54.7877 28.7769 54.1001 29.4645 L 51.319 32.2395 C 50.9473 32.6104 50.6604 33.0574 50.4778 33.5497 C 50.2953 34.042 50.2214 34.568 50.2614 35.0916 L 50.2799 35.2673 C 50.3786 36.0844 50.7393 36.8213 51.319 37.3979 C 51.7198 37.7988 52.1607 38.0516 52.6972 38.2304 C 52.7776 38.6668 52.7503 39.1162 52.6176 39.5396 C 52.4849 39.9631 52.2508 40.3477 51.9356 40.6601 L 51.763 40.8297 C 50.8569 40.5325 50.0339 40.0254 49.3611 39.3497 C 48.433 38.4247 47.8194 37.253 47.5851 35.9703 L 47.5542 35.7915 L 47.4124 35.9056 C 47.3199 35.9827 47.2274 36.0659 47.1411 36.1523 L 44.3599 38.9242 C 43.8486 39.4349 43.5005 40.0859 43.3598 40.7947 C 43.2191 41.5036 43.2921 42.2382 43.5696 42.9055 C 43.8471 43.5728 44.3165 44.1426 44.9183 44.5426 C 45.5201 44.9427 46.2272 45.1549 46.9499 45.1525 C 47.8872 45.1525 48.8215 44.7948 49.5337 44.0826 L 52.3149 41.3076 C 52.7482 40.873 53.0649 40.3362 53.2356 39.7467 C 53.4063 39.1573 53.4255 38.5343 53.2914 37.9354 C 53.1574 37.3365 52.8745 36.7812 52.4688 36.3207 C 52.0631 35.8603 51.5478 35.5096 50.9706 35.3013 C 50.8909 34.8267 50.9266 34.34 51.0747 33.8822 C 51.2228 33.4244 51.479 33.0091 51.8216 32.6712 C 52.7527 32.9888 53.5791 33.5037 54.2759 34.1974 C 55.2009 35.1224 55.8176 36.291 56.0488 37.5798 L 56.0796 37.7587 L 56.2246 37.6446 C 56.3171 37.5675 56.4096 37.4843 56.4959 37.3979 L 59.2771 34.6229 C 59.7899 34.1128 60.1393 33.4616 60.2809 32.7523 C 60.4224 32.043 60.3497 31.3075 60.072 30.6397 C 59.7943 29.9718 59.3241 29.4017 58.7213 29.0019 C 58.1185 28.602 57.4104 28.3907 56.6871 28.3946 L 56.6871 28.3977 Z" stroke-linecap="round" />
</g>
		<g transform="matrix(1 0 0 1 0 0)" id="path_1"  >
<path style="stroke: none; stroke-width: 1; stroke-dasharray: none; stroke-linecap: butt; stroke-dashoffset: 0; stroke-linejoin: miter; stroke-miterlimit: 4; fill: rgb(0,0,0); fill-rule: evenodd; opacity: 1;"  transform=" translate(-37, -37.01)" d="M 55.1947 18.2539 L 18.8083 18.2539 C 8.436 18.2539 0 26.6652 0 37.0067 C 0 47.3482 8.436 55.7627 18.8053 55.7627 L 55.1917 55.7627 C 65.5609 55.7627 73.9969 47.3482 73.9969 37.0067 C 73.9969 26.6652 65.564 18.2539 55.1947 18.2539 Z M 37.2467 47.6566 C 36.6454 47.7799 35.9702 47.8015 35.5138 47.3236 C 35.3751 47.635 35.0945 47.5641 34.8324 47.4993 C 34.7703 47.4823 34.7076 47.4679 34.6443 47.4562 L 34.5642 47.6843 C 33.5497 47.7522 32.7912 46.7192 32.3072 45.9422 C 31.8329 45.697 31.3461 45.4767 30.8487 45.2824 C 30.3184 45.0666 29.785 44.8477 29.2793 44.5671 C 29.2683 44.7467 29.2642 44.9267 29.267 45.1067 C 29.2608 45.8713 29.2547 46.6792 28.5671 47.1417 C 28.5455 48.0636 29.2948 48.0543 30.0347 48.0451 C 30.673 48.0389 31.2989 48.0297 31.413 48.6247 C 31.3637 48.6309 31.3112 48.6309 31.2588 48.6309 C 31.117 48.6309 30.9752 48.6309 30.8672 48.7388 C 30.5065 49.0872 30.1211 48.9362 29.7202 48.7789 C 29.3502 48.634 28.971 48.486 28.5887 48.7172 C 28.2433 48.8899 27.9998 49.0564 27.7808 49.1982 C 27.2935 49.5693 26.7033 49.7804 26.0912 49.8026 C 26.0172 49.6916 26.048 49.6176 26.1097 49.5528 C 26.1573 49.498 26.2016 49.4403 26.2422 49.3802 C 26.3008 49.2907 26.3502 49.2013 26.3995 49.115 C 26.566 48.8221 26.7171 48.5507 27.1457 48.4274 C 26.5752 48.338 26.085 48.6001 25.604 48.8591 L 25.5917 48.8652 L 25.3912 48.9701 C 25.0922 49.0934 24.9164 48.9978 24.7376 48.8961 C 24.4847 48.7573 24.2196 48.6093 23.5782 49.0194 C 23.4549 48.9207 23.5166 48.8344 23.5844 48.7542 C 23.865 48.4151 24.2319 48.3627 24.6482 48.3842 C 23.5659 47.7799 22.7858 48.2054 22.1507 48.5538 C 21.5895 48.8622 21.1424 49.1057 20.6984 48.5137 C 20.498 48.5692 20.3839 48.7111 20.2729 48.8529 C 20.2281 48.9133 20.1797 48.971 20.128 49.0256 C 20.0201 48.9053 20.0448 48.7666 20.0725 48.6247 C 20.0828 48.5675 20.091 48.5099 20.0972 48.4521 L 20.0139 48.4182 C 19.8505 48.3503 19.6902 48.2825 19.7364 48.0327 C 19.3757 47.9094 19.1197 48.1252 18.8546 48.3257 C 18.6881 48.1962 18.8237 48.0297 18.9532 47.8724 C 19.0118 47.7984 19.0673 47.7306 19.092 47.6689 C 19.2092 47.4654 19.4096 47.4592 19.6038 47.4531 C 19.7703 47.4531 19.9368 47.4469 20.0509 47.3236 C 20.461 47.0892 20.9667 47.2095 21.4754 47.3297 C 21.8284 47.439 22.1981 47.4839 22.5669 47.4623 C 23.1928 47.5425 23.9667 46.9012 23.6523 46.2598 C 23.0787 45.5322 23.0849 44.6072 23.088 43.7192 L 23.088 43.2721 C 23.0387 42.9329 22.5577 42.5444 22.0767 42.1528 C 21.7067 41.8537 21.3367 41.5547 21.1578 41.2772 C 20.6645 40.7222 20.2791 40.0839 19.8967 39.4487 L 19.8505 39.3717 C 19.1968 38.1106 18.9347 36.6861 18.6727 35.2647 C 18.3551 33.5565 18.0406 31.8545 17.0508 30.4485 C 16.2307 30.8987 15.1638 30.6859 14.4578 30.0785 C 14.0878 30.4177 14.0569 30.8555 14.0323 31.3211 L 14.0292 31.3642 C 13.1134 30.4485 13.2275 28.7249 13.9582 27.7074 C 14.2573 27.3066 14.615 26.9767 15.0127 26.6868 C 15.1052 26.619 15.1361 26.5573 15.133 26.4556 C 15.8576 23.2057 20.794 23.8347 22.3542 26.1349 C 22.8691 26.7793 23.2206 27.5162 23.5721 28.2532 C 23.9945 29.1381 24.4138 30.0199 25.1138 30.7383 C 25.7921 31.4783 26.5074 32.1844 27.2228 32.8905 C 28.3297 33.982 29.4366 35.0735 30.4047 36.2945 C 31.9156 38.1322 32.9917 40.2843 33.9321 42.455 C 34.0863 42.7417 34.1787 43.0562 34.2712 43.3677 C 34.4069 43.8363 34.5457 44.3019 34.8879 44.6719 C 34.9681 44.7829 35.1469 44.9463 35.3473 45.1344 C 35.8283 45.5815 36.4481 46.1581 36.2384 46.414 C 36.2778 46.4848 36.3301 46.5475 36.3926 46.599 C 36.4912 46.6915 36.6207 46.784 36.7502 46.8765 C 37.1264 47.1478 37.5242 47.4315 37.2467 47.6566 Z M 61.2288 36.5751 L 58.4477 39.3501 C 57.7077 40.0901 56.7919 40.6389 55.7991 40.9411 L 55.7467 40.9565 L 55.7282 41.0058 C 55.4079 41.8531 54.9095 42.6217 54.2667 43.2597 L 51.4855 46.0347 C 50.8892 46.6317 50.1806 47.1048 49.4005 47.4265 C 48.6205 47.7483 47.7845 47.9124 46.9407 47.9094 C 45.6705 47.9147 44.4275 47.5422 43.3696 46.8393 C 42.3117 46.1364 41.4867 45.1347 40.9996 43.9617 C 40.5124 42.7887 40.385 41.4974 40.6336 40.2518 C 40.8823 39.0062 41.4957 37.8627 42.3958 36.9667 L 45.177 34.1917 C 45.9232 33.4517 46.8142 32.9182 47.8256 32.6068 L 47.8749 32.5914 L 47.8934 32.5452 C 48.2172 31.6911 48.7105 30.9326 49.358 30.282 L 52.1392 27.507 C 52.7355 26.91 53.4441 26.437 54.2241 26.1152 C 55.0042 25.7935 55.8402 25.6293 56.684 25.6323 C 58.4045 25.6323 60.014 26.2983 61.2288 27.5101 C 62.4437 28.7187 63.1097 30.3282 63.1097 32.0426 C 63.1124 32.885 62.9475 33.7197 62.6246 34.4978 C 62.3017 35.2759 61.8273 35.9821 61.2288 36.5751 Z" stroke-linecap="round" />
</g>
</g>
</g>
<g transform="matrix(6.67 0 0 6.67 250 250)"  >
<g style=""   >
		<g transform="matrix(1 0 0 1 5.36 1.2)" id="path_0"  >
<path style="stroke: none; stroke-width: 1; stroke-dasharray: none; stroke-linecap: butt; stroke-dashoffset: 0; stroke-linejoin: miter; stroke-miterlimit: 4; fill: rgb(0,0,0); fill-rule: evenodd; opacity: 1;"  transform=" translate(-42.36, -38.21)" d="M 25.8167 44.8257 C 25.8568 44.6407 25.8907 44.4588 25.9339 44.2984 L 26.122 44.7517 C 26.4766 45.6243 26.8281 46.4907 27.6821 46.9809 C 27.6451 47.7764 26.6523 48.0971 25.9801 47.9984 C 25.8321 47.6438 25.6256 47.2893 25.1939 47.4866 C 24.753 47.6623 24.2689 47.4558 24.3737 46.91 C 25.4005 46.8699 25.6286 45.7476 25.8167 44.8257 Z M 56.6871 28.3977 C 55.7066 28.3977 54.7877 28.7769 54.1001 29.4645 L 51.319 32.2395 C 50.9473 32.6104 50.6604 33.0574 50.4778 33.5497 C 50.2953 34.042 50.2214 34.568 50.2614 35.0916 L 50.2799 35.2673 C 50.3786 36.0844 50.7393 36.8213 51.319 37.3979 C 51.7198 37.7988 52.1607 38.0516 52.6972 38.2304 C 52.7776 38.6668 52.7503 39.1162 52.6176 39.5396 C 52.4849 39.9631 52.2508 40.3477 51.9356 40.6601 L 51.763 40.8297 C 50.8569 40.5325 50.0339 40.0254 49.3611 39.3497 C 48.433 38.4247 47.8194 37.253 47.5851 35.9703 L 47.5542 35.7915 L 47.4124 35.9056 C 47.3199 35.9827 47.2274 36.0659 47.1411 36.1523 L 44.3599 38.9242 C 43.8486 39.4349 43.5005 40.0859 43.3598 40.7947 C 43.2191 41.5036 43.2921 42.2382 43.5696 42.9055 C 43.8471 43.5728 44.3165 44.1426 44.9183 44.5426 C 45.5201 44.9427 46.2272 45.1549 46.9499 45.1525 C 47.8872 45.1525 48.8215 44.7948 49.5337 44.0826 L 52.3149 41.3076 C 52.7482 40.873 53.0649 40.3362 53.2356 39.7467 C 53.4063 39.1573 53.4255 38.5343 53.2914 37.9354 C 53.1574 37.3365 52.8745 36.7812 52.4688 36.3207 C 52.0631 35.8603 51.5478 35.5096 50.9706 35.3013 C 50.8909 34.8267 50.9266 34.34 51.0747 33.8822 C 51.2228 33.4244 51.479 33.0091 51.8216 32.6712 C 52.7527 32.9888 53.5791 33.5037 54.2759 34.1974 C 55.2009 35.1224 55.8176 36.291 56.0488 37.5798 L 56.0796 37.7587 L 56.2246 37.6446 C 56.3171 37.5675 56.4096 37.4843 56.4959 37.3979 L 59.2771 34.6229 C 59.7899 34.1128 60.1393 33.4616 60.2809 32.7523 C 60.4224 32.043 60.3497 31.3075 60.072 30.6397 C 59.7943 29.9718 59.3241 29.4017 58.7213 29.0019 C 58.1185 28.602 57.4104 28.3907 56.6871 28.3946 L 56.6871 28.3977 Z" stroke-linecap="round" />
</g>
		<g transform="matrix(1 0 0 1 0 0)" id="path_1"  >
<path style="stroke: none; stroke-width: 1; stroke-dasharray: none; stroke-linecap: butt; stroke-dashoffset: 0; stroke-linejoin: miter; stroke-miterlimit: 4; fill: rgb(0,0,0); fill-rule: evenodd; opacity: 1;"  transform=" translate(-37, -37.01)" d="M 55.1947 18.2539 L 18.8083 18.2539 C 8.436 18.2539 0 26.6652 0 37.0067 C 0 47.3482 8.436 55.7627 18.8053 55.7627 L 55.1917 55.7627 C 65.5609 55.7627 73.9969 47.3482 73.9969 37.0067 C 73.9969 26.6652 65.564 18.2539 55.1947 18.2539 Z M 37.2467 47.6566 C 36.6454 47.7799 35.9702 47.8015 35.5138 47.3236 C 35.3751 47.635 35.0945 47.5641 34.8324 47.4993 C 34.7703 47.4823 34.7076 47.4679 34.6443 47.4562 L 34.5642 47.6843 C 33.5497 47.7522 32.7912 46.7192 32.3072 45.9422 C 31.8329 45.697 31.3461 45.4767 30.8487 45.2824 C 30.3184 45.0666 29.785 44.8477 29.2793 44.5671 C 29.2683 44.7467 29.2642 44.9267 29.267 45.1067 C 29.2608 45.8713 29.2547 46.6792 28.5671 47.1417 C 28.5455 48.0636 29.2948 48.0543 30.0347 48.0451 C 30.673 48.0389 31.2989 48.0297 31.413 48.6247 C 31.3637 48.6309 31.3112 48.6309 31.2588 48.6309 C 31.117 48.6309 30.9752 48.6309 30.8672 48.7388 C 30.5065 49.0872 30.1211 48.9362 29.7202 48.7789 C 29.3502 48.634 28.971 48.486 28.5887 48.7172 C 28.2433 48.8899 27.9998 49.0564 27.7808 49.1982 C 27.2935 49.5693 26.7033 49.7804 26.0912 49.8026 C 26.0172 49.6916 26.048 49.6176 26.1097 49.5528 C 26.1573 49.498 26.2016 49.4403 26.2422 49.3802 C 26.3008 49.2907 26.3502 49.2013 26.3995 49.115 C 26.566 48.8221 26.7171 48.5507 27.1457 48.4274 C 26.5752 48.338 26.085 48.6001 25.604 48.8591 L 25.5917 48.8652 L 25.3912 48.9701 C 25.0922 49.0934 24.9164 48.9978 24.7376 48.8961 C 24.4847 48.7573 24.2196 48.6093 23.5782 49.0194 C 23.4549 48.9207 23.5166 48.8344 23.5844 48.7542 C 23.865 48.4151 24.2319 48.3627 24.6482 48.3842 C 23.5659 47.7799 22.7858 48.2054 22.1507 48.5538 C 21.5895 48.8622 21.1424 49.1057 20.6984 48.5137 C 20.498 48.5692 20.3839 48.7111 20.2729 48.8529 C 20.2281 48.9133 20.1797 48.971 20.128 49.0256 C 20.0201 48.9053 20.0448 48.7666 20.0725 48.6247 C 20.0828 48.5675 20.091 48.5099 20.0972 48.4521 L 20.0139 48.4182 C 19.8505 48.3503 19.6902 48.2825 19.7364 48.0327 C 19.3757 47.9094 19.1197 48.1252 18.8546 48.3257 C 18.6881 48.1962 18.8237 48.0297 18.9532 47.8724 C 19.0118 47.7984 19.0673 47.7306 19.092 47.6689 C 19.2092 47.4654 19.4096 47.4592 19.6038 47.4531 C 19.7703 47.4531 19.9368 47.4469 20.0509 47.3236 C 20.461 47.0892 20.9667 47.2095 21.4754 47.3297 C 21.8284 47.439 22.1981 47.4839 22.5669 47.4623 C 23.1928 47.5425 23.9667 46.9012 23.6523 46.2598 C 23.0787 45.5322 23.0849 44.6072 23.088 43.7192 L 23.088 43.2721 C 23.0387 42.9329 22.5577 42.5444 22.0767 42.1528 C 21.7067 41.8537 21.3367 41.5547 21.1578 41.2772 C 20.6645 40.7222 20.2791 40.0839 19.8967 39.4487 L 19.8505 39.3717 C 19.1968 38.1106 18.9347 36.6861 18.6727 35.2647 C 18.3551 33.5565 18.0406 31.8545 17.0508 30.4485 C 16.2307 30.8987 15.1638 30.6859 14.4578 30.0785 C 14.0878 30.4177 14.0569 30.8555 14.0323 31.3211 L 14.0292 31.3642 C 13.1134 30.4485 13.2275 28.7249 13.9582 27.7074 C 14.2573 27.3066 14.615 26.9767 15.0127 26.6868 C 15.1052 26.619 15.1361 26.5573 15.133 26.4556 C 15.8576 23.2057 20.794 23.8347 22.3542 26.1349 C 22.8691 26.7793 23.2206 27.5162 23.5721 28.2532 C 23.9945 29.1381 24.4138 30.0199 25.1138 30.7383 C 25.7921 31.4783 26.5074 32.1844 27.2228 32.8905 C 28.3297 33.982 29.4366 35.0735 30.4047 36.2945 C 31.9156 38.1322 32.9917 40.2843 33.9321 42.455 C 34.0863 42.7417 34.1787 43.0562 34.2712 43.3677 C 34.4069 43.8363 34.5457 44.3019 34.8879 44.6719 C 34.9681 44.7829 35.1469 44.9463 35.3473 45.1344 C 35.8283 45.5815 36.4481 46.1581 36.2384 46.414 C 36.2778 46.4848 36.3301 46.5475 36.3926 46.599 C 36.4912 46.6915 36.6207 46.784 36.7502 46.8765 C 37.1264 47.1478 37.5242 47.4315 37.2467 47.6566 Z M 61.2288 36.5751 L 58.4477 39.3501 C 57.7077 40.0901 56.7919 40.6389 55.7991 40.9411 L 55.7467 40.9565 L 55.7282 41.0058 C 55.4079 41.8531 54.9095 42.6217 54.2667 43.2597 L 51.4855 46.0347 C 50.8892 46.6317 50.1806 47.1048 49.4005 47.4265 C 48.6205 47.7483 47.7845 47.9124 46.9407 47.9094 C 45.6705 47.9147 44.4275 47.5422 43.3696 46.8393 C 42.3117 46.1364 41.4867 45.1347 40.9996 43.9617 C 40.5124 42.7887 40.385 41.4974 40.6336 40.2518 C 40.8823 39.0062 41.4957 37.8627 42.3958 36.9667 L 45.177 34.1917 C 45.9232 33.4517 46.8142 32.9182 47.8256 32.6068 L 47.8749 32.5914 L 47.8934 32.5452 C 48.2172 31.6911 48.7105 30.9326 49.358 30.282 L 52.1392 27.507 C 52.7355 26.91 53.4441 26.437 54.2241 26.1152 C 55.0042 25.7935 55.8402 25.6293 56.684 25.6323 C 58.4045 25.6323 60.014 26.2983 61.2288 27.5101 C 62.4437 28.7187 63.1097 30.3282 63.1097 32.0426 C 63.1124 32.885 62.9475 33.7197 62.6246 34.4978 C 62.3017 35.2759 61.8273 35.9821 61.2288 36.5751 Z" stroke-linecap="round" />
</g>
</g>
</g>
</svg>